# xmcd
#
# Track frame offsets: 
#        150
#        12351
#        29909
#        44034
#        66258
#        78424
#        93084
#        111192
#        130204
#        143756
#        159958
#        177829
#        192315
#        208964
#        227427
#
# Disc length: 3270 seconds
#
# Revision: 0
# Processed by: cddbd v1.5.2PL0 Copyright (c) Steve Scherf et al.
# Submitted via: ExactAudioCopyFreeDBPlugin 1.0
#
DISCID=d00cc40f
DTITLE=Don Shoen - Country Favorites
DYEAR=2011
DGENRE=Country
TTITLE0=It's Such A Pretty World Today
TTITLE1=For The Good Times
TTITLE2=Distant Drums
TTITLE3=Four Walls
TTITLE4=Does He Mean That Much To You
TTITLE5=It's Just beginning To Rain
TTITLE6=Green, Green Grass Of Home
TTITLE7=Molly Darling
TTITLE8=Almost Persuaded
TTITLE9=Am I Losing You
TTITLE10=You Gave Me A Mountain
TTITLE11=Heartaches By The Number
TTITLE12=Don't Touch Me
TTITLE13=Via Con Dios
TTITLE14=Far Side Banks Of Jordan
EXTD=
EXTT0=
EXTT1=
EXTT2=
EXTT3=
EXTT4=
EXTT5=
EXTT6=
EXTT7=
EXTT8=
EXTT9=
EXTT10=
EXTT11=
EXTT12=
EXTT13=
EXTT14=
PLAYORDER=
